<svg xmlns="http://www.w3.org/2000/svg" xmlns:xlink="http://www.w3.org/1999/xlink" width="800" zoomAndPan="magnify" viewBox="0 0 600 225" height="300" preserveAspectRatio="xMidYMid meet" version="1.0"><defs><g/><clipPath id="a52dc41faa"><path d="M 9.734375 22.5 L 189.746094 22.5 L 189.746094 202.507812 L 9.734375 202.507812 Z M 9.734375 22.5 " clip-rule="nonzero"/></clipPath><clipPath id="dc28b8cf35"><path d="M 209.996094 22.5 L 390.003906 22.5 L 390.003906 202.507812 L 209.996094 202.507812 Z M 209.996094 22.5 " clip-rule="nonzero"/></clipPath><clipPath id="bbb4969e1b"><path d="M 410.253906 22.5 L 590.265625 22.5 L 590.265625 202.507812 L 410.253906 202.507812 Z M 410.253906 22.5 " clip-rule="nonzero"/></clipPath></defs><g clip-path="url(#a52dc41faa)"><path fill="#ffffff" d="M 9.734375 22.5 L 189.746094 22.5 L 189.746094 202.507812 L 9.734375 202.507812 Z M 9.734375 22.5 " fill-opacity="1" fill-rule="nonzero"/></g><g clip-path="url(#dc28b8cf35)"><path fill="#ffffff" d="M 209.996094 22.5 L 390.003906 22.5 L 390.003906 202.507812 L 209.996094 202.507812 Z M 209.996094 22.5 " fill-opacity="1" fill-rule="nonzero"/></g><g clip-path="url(#bbb4969e1b)"><path fill="#ffffff" d="M 410.253906 22.5 L 590.265625 22.5 L 590.265625 202.507812 L 410.253906 202.507812 Z M 410.253906 22.5 " fill-opacity="1" fill-rule="nonzero"/></g><g fill="#000000" fill-opacity="1"><g transform="translate(50.872102, 156.037346)"><g><path d="M 10.640625 -95.484375 L 10.640625 0 L 55.71875 0 C 62.578125 0 67.625 -0.5625 71.125 -1.6875 C 82.453125 -5.453125 91.140625 -13.859375 91.140625 -27.859375 C 91.140625 -40.453125 83.859375 -48.859375 70.984375 -52.5 C 79.65625 -57.125 83.859375 -64.40625 83.859375 -71.6875 C 83.859375 -79.65625 79.09375 -89.59375 65.515625 -93.65625 C 61.3125 -94.921875 56.421875 -95.484375 50.546875 -95.484375 Z M 34.859375 -57.546875 L 34.859375 -78.40625 L 45.078125 -78.40625 C 55.859375 -78.40625 59.921875 -74.625 59.921875 -68.046875 C 59.921875 -62.015625 57.265625 -57.546875 44.375 -57.546875 Z M 34.859375 -17.359375 L 34.859375 -40.3125 L 47.875 -40.3125 C 63.703125 -40.3125 66.640625 -35.421875 66.640625 -28.703125 C 66.640625 -21 61.3125 -17.359375 49.140625 -17.359375 Z M 34.859375 -17.359375 "/></g></g></g><g fill="#000000" fill-opacity="1"><g transform="translate(251.131834, 156.037346)"><g><path d="M 10.640625 -95.484375 L 10.640625 0 L 55.71875 0 C 62.578125 0 67.625 -0.5625 71.125 -1.6875 C 82.453125 -5.453125 91.140625 -13.859375 91.140625 -27.859375 C 91.140625 -40.453125 83.859375 -48.859375 70.984375 -52.5 C 79.65625 -57.125 83.859375 -64.40625 83.859375 -71.6875 C 83.859375 -79.65625 79.09375 -89.59375 65.515625 -93.65625 C 61.3125 -94.921875 56.421875 -95.484375 50.546875 -95.484375 Z M 34.859375 -57.546875 L 34.859375 -78.40625 L 45.078125 -78.40625 C 55.859375 -78.40625 59.921875 -74.625 59.921875 -68.046875 C 59.921875 -62.015625 57.265625 -57.546875 44.375 -57.546875 Z M 34.859375 -17.359375 L 34.859375 -40.3125 L 47.875 -40.3125 C 63.703125 -40.3125 66.640625 -35.421875 66.640625 -28.703125 C 66.640625 -21 61.3125 -17.359375 49.140625 -17.359375 Z M 34.859375 -17.359375 "/></g></g></g><g fill="#000000" fill-opacity="1"><g transform="translate(457.204082, 156.037346)"><g><path d="M 10.640625 -95.484375 L 10.640625 0 L 83.4375 0 L 83.4375 -17.78125 L 34.71875 -17.78125 L 34.71875 -95.484375 Z M 10.640625 -95.484375 "/></g></g></g></svg>