<svg xmlns="http://www.w3.org/2000/svg" xmlns:xlink="http://www.w3.org/1999/xlink" width="500" zoomAndPan="magnify" viewBox="0 0 375 374.999991" height="500" preserveAspectRatio="xMidYMid meet" version="1.0"><defs><clipPath id="b6d7c167b4"><path d="M 26.0625 26.0625 L 349.574219 26.0625 L 349.574219 349.574219 L 26.0625 349.574219 Z M 26.0625 26.0625 " clip-rule="nonzero"/></clipPath><clipPath id="0d37dfdc6c"><path d="M 187.820312 26.0625 C 98.484375 26.0625 26.0625 98.484375 26.0625 187.820312 C 26.0625 277.152344 98.484375 349.574219 187.820312 349.574219 C 277.152344 349.574219 349.574219 277.152344 349.574219 187.820312 C 349.574219 98.484375 277.152344 26.0625 187.820312 26.0625 Z M 187.820312 26.0625 " clip-rule="nonzero"/></clipPath><clipPath id="a643372c55"><path d="M 15.605469 15.605469 L 359.105469 15.605469 L 359.105469 359.105469 L 15.605469 359.105469 Z M 15.605469 15.605469 " clip-rule="nonzero"/></clipPath></defs><g clip-path="url(#b6d7c167b4)"><g clip-path="url(#0d37dfdc6c)"><path fill="#000000" d="M 26.0625 26.0625 L 349.574219 26.0625 L 349.574219 349.574219 L 26.0625 349.574219 Z M 26.0625 26.0625 " fill-opacity="1" fill-rule="nonzero"/></g></g><g clip-path="url(#a643372c55)"><path fill="#ffffff" d="M 345.863281 120.582031 C 337.207031 100.109375 324.816406 81.726562 309.042969 65.953125 C 293.265625 50.167969 274.890625 37.78125 254.414062 29.125 C 233.203125 20.160156 210.6875 15.605469 187.496094 15.605469 C 164.304688 15.605469 141.789062 20.160156 120.582031 29.125 C 100.109375 37.78125 81.726562 50.175781 65.953125 65.953125 C 50.175781 81.726562 37.789062 100.101562 29.128906 120.582031 C 20.160156 141.789062 15.605469 164.304688 15.605469 187.496094 C 15.605469 210.6875 20.160156 233.203125 29.125 254.414062 C 37.78125 274.882812 50.175781 293.265625 65.945312 309.042969 C 81.726562 324.824219 100.101562 337.210938 120.574219 345.871094 C 141.789062 354.835938 164.304688 359.386719 187.496094 359.386719 C 210.6875 359.386719 233.203125 354.835938 254.414062 345.871094 C 274.882812 337.210938 293.265625 324.816406 309.042969 309.042969 C 324.824219 293.265625 337.207031 274.890625 345.863281 254.414062 C 354.835938 233.203125 359.386719 210.6875 359.386719 187.496094 C 359.386719 164.304688 354.835938 141.789062 345.863281 120.582031 Z M 138.097656 135.207031 C 142.023438 116.324219 156.847656 101.496094 175.742188 97.558594 C 211.242188 90.164062 242.019531 120.941406 234.625 156.441406 C 230.691406 175.328125 215.867188 190.160156 196.980469 194.089844 C 161.472656 201.484375 130.695312 170.710938 138.097656 135.207031 Z M 191.503906 330.585938 C 190.785156 330.613281 190.066406 330.628906 189.351562 330.636719 L 189.1875 330.636719 C 188.625 330.648438 188.058594 330.648438 187.496094 330.648438 L 187.050781 330.648438 C 148.105469 330.527344 112.808594 314.851562 87.074219 289.507812 C 96.296875 243.097656 137.242188 208.125 186.359375 208.125 C 236.128906 208.125 277.511719 244.050781 285.984375 291.382812 C 261.226562 314.867188 228.082031 329.582031 191.503906 330.585938 Z M 191.503906 330.585938 " fill-opacity="1" fill-rule="nonzero"/></g></svg>